<svg width="26" height="26" viewBox="0 0 26 26" xmlns="http://www.w3.org/2000/svg">
<path fill-rule="evenodd" clip-rule="evenodd" d="M13.0084 0.5C15.0306 0.5 17.0451 0.998833 18.835 1.94254C24.929 5.15797 27.2726 12.7319 24.0594 18.828C21.8677 22.9849 17.5525 25.5 12.9941 25.5C12.1036 25.5 11.2042 25.4042 10.3093 25.206C9.80509 25.0937 9.48696 24.5937 9.59814 24.0894C9.70932 23.5851 10.208 23.269 10.7155 23.378C15.3708 24.4131 20.1769 22.1789 22.4038 17.9547C25.136 12.7726 23.1435 6.33183 17.962 3.59871C16.4407 2.79595 14.7279 2.372 13.0073 2.372H12.9952C7.13785 2.372 2.37137 7.13899 2.37137 12.9983C2.36917 14.7052 2.78527 16.4043 3.57455 17.914L3.81453 18.3831C4.10844 18.9337 4.17339 19.6175 3.98295 20.2364C3.71986 20.9301 3.5008 21.6051 3.32026 22.2769C4.02258 22.0654 4.8801 21.7538 5.49985 21.5281L5.75414 21.4367C6.23519 21.2572 6.77569 21.5115 6.95181 21.9983C7.12794 22.4839 6.87586 23.0213 6.3904 23.1963L6.13942 23.2877L6.09671 23.3032L6.09669 23.3032L6.0966 23.3033C5.1738 23.6377 3.9313 24.0879 3.088 24.2766C3.01534 24.292 2.93719 24.3019 2.86563 24.2997C2.29101 24.2997 1.94096 24.0674 1.74832 23.8714C1.4522 23.5707 1.3113 23.149 1.32781 22.6182C1.33001 22.5577 1.33772 22.4949 1.35203 22.4343C1.57439 21.4873 1.8639 20.5425 2.21396 19.6274C2.23928 19.5382 2.22386 19.3764 2.15231 19.2409L1.91124 18.7729C0.987663 17.0044 0.497806 15.0036 0.500007 12.9972C0.500007 6.10609 6.1053 0.5 12.9941 0.5H13.0084ZM6.00435 12.9989C6.00435 12.1785 6.67034 11.5123 7.49043 11.5123C8.31053 11.5123 8.97652 12.1785 8.97652 12.9989C8.97652 13.8182 8.31053 14.4844 7.49043 14.4844C6.67034 14.4844 6.00435 13.8182 6.00435 12.9989ZM14.4806 12.9984C14.4806 12.1792 13.8147 11.5119 12.9946 11.5119C12.1745 11.5119 11.5085 12.1792 11.5085 12.9984C11.5085 13.8177 12.1745 14.485 12.9946 14.485C13.8147 14.485 14.4806 13.8177 14.4806 12.9984ZM18.4986 11.5119C19.3187 11.5119 19.9847 12.1792 19.9847 12.9984C19.9847 13.8177 19.3187 14.485 18.4986 14.485C17.6785 14.485 17.0125 13.8177 17.0125 12.9984C17.0125 12.1792 17.6785 11.5119 18.4986 11.5119Z" fill="#9B9BA0"/>
</svg>
