<svg width="20" height="26" viewBox="0 0 20 26" fill="none" xmlns="http://www.w3.org/2000/svg">
<path fill-rule="evenodd" clip-rule="evenodd" d="M5.07296 7.19234C5.07296 4.49241 7.28302 2.29622 10 2.29622C12.717 2.29622 14.927 4.49241 14.927 7.19234C14.927 9.89103 12.717 12.0872 10 12.0872C7.28302 12.0872 5.07296 9.89103 5.07296 7.19234ZM3.26541 7.19233C3.26541 10.881 6.2868 13.8834 10 13.8834C13.7132 13.8834 16.7333 10.881 16.7333 7.19233C16.7333 3.50242 13.7132 0.5 10 0.5C6.2868 0.5 3.26541 3.50242 3.26541 7.19233ZM8.72201 25.4812C9.14088 25.4937 9.5673 25.5 10 25.5C14.2931 25.5 20 25.0238 20 20.9126C20 16.299 12.473 16.299 10 16.299C5.70692 16.299 0 16.7752 0 20.8876C0 22.1188 0.576101 23.78 3.32075 24.7038C3.79497 24.8663 4.30566 24.61 4.46667 24.1413C4.62641 23.6725 4.37358 23.1638 3.90063 23.0051C2.02264 22.3726 1.80629 21.4938 1.80629 20.8876C1.80629 19.0339 4.56352 18.0939 10 18.0939C15.4365 18.0939 18.1937 19.0427 18.1937 20.9126C18.1937 22.7651 15.4365 23.7038 10 23.7038C9.58491 23.7038 9.1761 23.6988 8.77359 23.6875C8.29057 23.6913 7.86038 24.0638 7.84654 24.5588C7.83145 25.055 8.2239 25.4687 8.72201 25.4812Z" fill="#9B9BA0"/>
</svg>
